<?xml version="1.0" standalone="no"?>
<!DOCTYPE svg PUBLIC "-//W3C//DTD SVG 20010904//EN"
 "http://www.w3.org/TR/2001/REC-SVG-20010904/DTD/svg10.dtd">
<svg version="1.0" xmlns="http://www.w3.org/2000/svg"
 width="512.000000pt" height="512.000000pt" viewBox="0 0 512.000000 512.000000"
 preserveAspectRatio="xMidYMid meet">
<metadata>
Created by potrace 1.14, written by Peter Selinger 2001-2017
</metadata>
<g transform="translate(0.000000,512.000000) scale(0.100000,-0.100000)"
fill="#000000" stroke="none">
<path d="M0 2560 l0 -2560 2560 0 2560 0 0 2560 0 2560 -2560 0 -2560 0 0
-2560z m876 938 c301 -431 766 -1106 829 -1203 20 -30 20 -30 25 695 5 724 5
725 27 773 27 58 114 152 164 178 21 10 69 27 108 38 l71 20 0 -983 c0 -1080
3 -1033 -61 -1130 -60 -90 -185 -165 -283 -169 l-38 -2 -334 435 c-221 288
-421 562 -591 812 -142 208 -261 378 -265 378 -4 0 -9 -305 -10 -677 l-3 -678
-28 -53 c-36 -68 -89 -126 -144 -159 -43 -25 -151 -63 -179 -63 -12 0 -14 138
-12 998 l3 997 27 57 c30 64 93 137 146 170 28 17 163 65 193 67 3 1 163 -225
355 -501z m1782 -663 l-3 -830 -27 -58 c-36 -77 -78 -128 -135 -166 -46 -31
-157 -71 -194 -71 -19 0 -20 19 -17 993 3 962 4 993 23 1040 49 119 141 199
269 232 l81 22 3 -166 c1 -91 1 -539 0 -996z m1778 1148 c-2 -10 -8 -34 -12
-53 -28 -139 -141 -259 -279 -295 -84 -21 -505 -22 -588 0 -142 37 -237 138
-278 298 l-17 67 590 0 c556 0 589 -1 584 -17z m362 -898 c-4 -690 -4 -712
-25 -786 -43 -153 -123 -281 -242 -390 -114 -104 -249 -168 -411 -195 -119
-20 -485 -19 -609 1 -264 43 -479 206 -591 449 -63 136 -72 194 -78 510 l-4
279 41 -7 c109 -17 210 -76 264 -152 47 -67 67 -126 77 -233 5 -53 18 -122 29
-153 52 -152 183 -270 346 -314 68 -19 382 -19 450 0 130 34 260 133 317 242
57 107 58 117 58 739 0 629 1 643 62 738 56 88 129 137 248 167 l65 16 3 -100
c2 -56 1 -420 0 -811z"/>
</g>
</svg>
